<svg id="Layer_1" data-name="Layer 1" xmlns="http://www.w3.org/2000/svg" viewBox="0 0 318.14 135.2"><defs><style>.cls-1{fill:#cfe1ac;}.cls-1,.cls-2{stroke:#070707;stroke-miterlimit:10;}.cls-2{fill:#fff;}.cls-3{isolation:isolate;font-size:23px;font-family:SnellRoundhand, Snell Roundhand;}.cls-3,.cls-4{fill:#070707;}.cls-5{fill:#e1a4c6;}</style></defs><title>ally</title><g id="Layer_1-2" data-name="Layer 1-2"><rect class="cls-1" x="0.5" y="0.5" width="254.54" height="134.2"/><rect class="cls-2" x="19.74" y="17.04" width="215.26" height="103.11"/><text class="cls-3" transform="translate(62.33 111.63)">Santana Design</text><path class="cls-4" d="M179.15,49.8c4-1.47,8.64-3.41,11-7.18,2.75-4.43.48-9.42-3.4-12.38-5.93-4.53-16.27-4.28-19.32,3.52-5,12.49,10.5,21.14,16.71,29.43a45.05,45.05,0,0,1,8.27,19.34c.75,4.42,1.37,9.08-2.39,12.18-3.92,3.23-9.42,3.05-14.22,2.12-7.6-1.47-15-5.75-18.73-12.69-2.25-4.16-3.51-9.86,0-13.74,1.28-1.43,6.47-3.22,8.42-3a9.14,9.14,0,0,1,4.4,2.6,9.27,9.27,0,0,1,1.5,2.21,4.33,4.33,0,0,1,.76,1.76q1,2.64-3.09,3.93c-.58-.4-2.34.43-1.52,1a4.31,4.31,0,0,0,6-1.07,4.43,4.43,0,0,0,.78-2.41c.4-5.44-5.71-9.63-10.63-9.49a11.27,11.27,0,0,0-10.42,8c-1.76,6.61,2.82,13.72,7.72,17.72,7.38,6,23.17,10.91,31.21,3.3,4.73-4.48,2.57-13,.92-18.38A46.73,46.73,0,0,0,181.29,57c-5.93-5.79-17.81-15.79-11.06-25.17,5.13-7.16,17.38-2.19,19.08,5.31,1.48,6.52-6.06,9.9-11,11.72-1.26.46-.13,1.24.79.9Z" transform="translate(-58.48 -4.25)"/><path class="cls-5" d="M180.3,72.05c-9.69-24.18-43-13.85-61.09-25.56-.55-.35-2.22.16-1.63,1,5.27,7.29,5.94,16.17,8.76,24.46a32.86,32.86,0,0,0,12.44,16.81c12.54,8.58,30.18,5.52,41.59,16.1.61.57,2.3-.35,1.49-1.1-11.09-10.3-27.91-7.65-40.38-15.3-7.48-4.6-11.79-11.75-14.15-20-2.15-7.55-3.31-15.3-8-21.81l-1.64,1c9,5.85,19.57,6.62,30,7.85,12,1.41,25.7,4.69,30.68,17.12.34.86,2.26.31,1.93-.52Z" transform="translate(-58.48 -4.25)"/><path class="cls-5" d="M190.16,62.63c2.4-7.94,11.76-6.57,18.23-8a25.29,25.29,0,0,0,11.34-5.8l-1.63-.41c-1.24,6.69-2.1,16.2-7.7,20.77-3.54,2.89-7.78,4.14-10.66,7.84-.76,1,1.06,1.36,1.64.63,3.61-4.65,10-5.77,13.32-10.79s4.29-12.75,5.37-18.58c.15-.84-1.24-.75-1.63-.41A23.58,23.58,0,0,1,208,53.25c-3.63.8-7.44.55-11,1.52-4,1.09-7.42,3.48-8.66,7.57-.33,1.1,1.6,1.13,1.86.26Z" transform="translate(-58.48 -4.25)"/><path class="cls-5" d="M219.92,64.37c2.86-8,15.24-5,22.22-6.1a46.49,46.49,0,0,0,13.49-4.34h-1.5c-4.84,6-7,12.41-8.08,19.91-1.42,10.06-7.35,14.77-17,17.42-7.92,2.16-16.11,2.42-24,4.31-5.45,1.29-7.59,3.54-9.3,9-.11.36,1.75.14,1.9-.34a17.12,17.12,0,0,1,2.1-5.08c2.41-3.24,8-3.43,11.76-3.92,3.93-.52,7.84-1.15,11.71-2,5.14-1.08,10.38-2.32,15-4.83a17.43,17.43,0,0,0,9.59-13.33c1.37-8.27,2.9-14.85,8.28-21.5.25-.31-1.37,0-1.5,0a40.73,40.73,0,0,1-18.11,4.31c-2.86,0-5.73-.35-8.58,0-4.26.54-8.29,2.43-9.82,6.7-.12.33,1.73.14,1.9-.35Z" transform="translate(-58.48 -4.25)"/><path class="cls-5" d="M223.86,55.09a220.61,220.61,0,0,0,26.27-4.44l-1-.58-2.66,4c-.52.79,1.43.69,1.81.1l2.66-4.05c.43-.64-.73-.66-1-.58a217.93,217.93,0,0,1-25.75,4.34c-1,.1-1.57,1.32-.23,1.17Z" transform="translate(-58.48 -4.25)"/><path class="cls-5" d="M171.81,52.32a55.35,55.35,0,0,1-35-9c-.41-.27-1.93.06-1.72.75a23,23,0,0,0,3,6.41c.38.59,2.25-.07,1.79-.79a20.81,20.81,0,0,1-2.82-6.13l-1.78.69a57.4,57.4,0,0,0,36.29,9.21c1-.07,1.57-1.27.24-1.16Z" transform="translate(-58.48 -4.25)"/><path class="cls-5" d="M228.57,95.18c7.4-2.24,14.2,1.14,21.18,3a31.87,31.87,0,0,0,7,1.21c2.75.11,6.65-1.52.43,1.45-6,2.86-12.56,1.62-19.07,2.18-5.35.45-11,4-16.3,2.91-.47-.1-2.16.67-1.57.79a16.58,16.58,0,0,0,8.49-.69c6.59-1.94,12.68-2.32,19.47-2.51,5.5-.15,11.8-.23,15.23-5.22.22-.32-.75-.24-.79-.23-11.81,2.42-22.36-7.18-34.27-3.57-1.11.33-1,1,.18.67Z" transform="translate(-58.48 -4.25)"/><path class="cls-5" d="M145.48,94.93c-5.19-2.19-10-3.68-15.66-2.91-8,1-15.81,5-23.68,1.32-.59-.28-2.4.52-1.51,1,3.83,2.11,6.26,6,10.31,7.82,4.35,1.89,9.48,1.4,12.88,5.18.5.55,2.35-.17,1.78-.8-2.75-3-6.39-3.53-10.21-4.5-5.67-1.43-8.4-6-13.25-8.71l-1.51,1c4.63,2.15,9.35,2,14.32,1.12,3.56-.67,7-1.81,10.64-2.25,5.37-.65,9.5.66,14.36,2.71.64.27,2.38-.64,1.51-1Z" transform="translate(-58.48 -4.25)"/><path class="cls-5" d="M126,78.14a28.62,28.62,0,0,1-19.25-2c-.35-.16-2.08.21-1.68.77,5.4,7.7,14.1,11.26,22.59,14.49.5.19,2.26-.57,1.57-.84-8.42-3.2-17-6.73-22.35-14.35l-1.69.77a31.12,31.12,0,0,0,21,2c1.15-.27.94-1.06-.21-.78Z" transform="translate(-58.48 -4.25)"/><path class="cls-5" d="M248.2,84a33.18,33.18,0,0,1,13.23-1c2.91.37,5.43.8,8.34.25l-1-.82c-3.08,3.28-8.38,2.62-12.39,4.06a22.11,22.11,0,0,0-7.67,4.88c-.85.81,1,1,1.59.47,4.06-3.82,8.45-4.64,13.65-5.71a11.27,11.27,0,0,0,6.41-3.23c.65-.69-.46-.92-.95-.83-4,.76-8.14-.7-12.18-.65a36.4,36.4,0,0,0-9.39,1.45c-1.17.32-.86,1.51.32,1.18Z" transform="translate(-58.48 -4.25)"/><path class="cls-5" d="M312,83.63c.85,0,2-1.3.69-1.3C311.82,82.33,310.67,83.63,312,83.63Z" transform="translate(-58.48 -4.25)"/><path class="cls-5" d="M375.1,67.86c.42,0,2.19-.8,1.25-.8C375.94,67.06,374.17,67.86,375.1,67.86Z" transform="translate(-58.48 -4.25)"/><path class="cls-5" d="M245.48,80.44c.75,0,2-1.13.75-1.13C245.48,79.31,244.18,80.44,245.48,80.44Z" transform="translate(-58.48 -4.25)"/></g></svg>